<?xml version="1.0" encoding="utf-8"?>

<svg version="1.1" id="Icons" xmlns="http://www.w3.org/2000/svg" xmlns:xlink="http://www.w3.org/1999/xlink" x="0px" y="0px"
  viewBox="0 0 32 32" style="enable-background:new 0 0 32 32;" xml:space="preserve" fill="white">

<polyline class="st0" points="23,12 23,18 29,18 23,12 15,12 15,30 29,30 29,18 "/>
<path class="st0" d="M20,6h-8V4c0-1.1,0.9-2,2-2h4c1.1,0,2,0.9,2,2V6z"/>
<path class="st0" d="M15,28h-5c-2.2,0-4-1.8-4-4V8c0-2.2,1.8-4,4-4h2"/>
<path class="st0" d="M20,4h2c2.2,0,4,1.8,4,4v7"/>
</svg>
