<svg id="Capa_1" data-name="Capa 1" xmlns="http://www.w3.org/2000/svg" viewBox="0 0 171.75 217.81"><defs><style>.cls-1{fill:#484654;}.cls-2{fill:#eeecec;}.cls-3{fill:#34333e;}.cls-4{fill:#d5d0d0;}.cls-5{fill:#f59b3d;}</style></defs><path class="cls-1" d="M158.37,126.12c-6.53-14.91-13.41-29.64-23.86-42.33-4-4.87-9.63-7.05-15.49-8.72-13.17-3.75-26.66-4.52-40.23-3.94a118.8,118.8,0,0,0-25.57,3.8A33.13,33.13,0,0,0,33.38,88.78C25.72,100,19.73,112.16,14.14,124.51c-1.22,2.7-.72,3.89,1.53,5.91,7.06,6.33,14.06,12.73,21.09,19.09l28,25.28c1.74,1.57,3.51,1.45,5.33.16l5.84,5.32q.06,18.07.14,36.14c0,1.22-.5,1.53-1.62,1.53q-20.77,0-41.56,0c-1.21,0-1.57-.48-1.55-1.61.2-9.55-.58-19.14.46-28.66.88-8,4.79-14.63,11-19.8.52-.43,1.09-.81,1.59-1.26,2.54-2.25,2.63-3.93.17-6.2-3.49-3.21-7-6.36-10.59-9.49-7.38-6.53-14.75-13.07-22.19-19.54-3.25-2.83-6.39-5.71-8.47-9.57a25.73,25.73,0,0,1-2-20.72q6.54-20.76,13.2-41.48A87.12,87.12,0,0,1,24,39.68c1.06-1.66,1.48-3.3.34-5a1.42,1.42,0,0,1,.18-1.84c.81-1.08,1.59-2.19,2.41-3.27.46-.61.91-1.09,1.88-.73,1.78.66,3.18-.09,4.37-1.47A86.08,86.08,0,0,1,50.25,12C57.11,7.36,64.13,2.84,72.4,1.2A66.26,66.26,0,0,1,91.48.31c3,.27,6,.29,8.92,1.16.2,1,1.14,1.12,1.84,1.48a96.92,96.92,0,0,1,35.07,31,105.34,105.34,0,0,1,14.1,29.57c3.65,11.92,7.53,23.77,11.38,35.63a30.25,30.25,0,0,1-.54,21.09C161.39,122.43,160.48,124.71,158.37,126.12Z"/><path class="cls-2" d="M109.46,138.35a43,43,0,0,1-24.25,6.39,47.07,47.07,0,0,1-45.2-36,58.3,58.3,0,0,1-1.37-14.56,2.6,2.6,0,0,1,.47-1.7c1.72-2.17,3.24-4.54,5.56-6.16l3.49.12a17.73,17.73,0,0,0-1.71,1.76,3.29,3.29,0,0,0,1.83,5.19c1.51.45,2.62-.3,3.66-1.19A12.7,12.7,0,0,1,59,89a13.1,13.1,0,0,1,10.31,3.47c1.78,1.53,3.73,1.33,5-.2s1.07-3.41-.69-5c-1.06-.94-2.23-1.76-3.35-2.63,2.38.14,4.78.13,7.14.42a98.64,98.64,0,0,1,19.42,4.42c.46,4,2.67,5,6.34,2.71A93.23,93.23,0,0,1,124.81,107a2,2,0,0,1,.86,1.94,46.49,46.49,0,0,1-9.41,22C114.17,133.61,111.47,135.66,109.46,138.35Zm3.14-18.27c.09-2.61-2.28-4.16-5-3.25s-5.66,2-8.43,3.12a2.78,2.78,0,0,1-2.92-.29c-2.49-1.69-5.09-3.2-7.55-4.92a4.4,4.4,0,0,0-5.59,0c-2.47,1.72-5.06,3.25-7.55,4.92a2.64,2.64,0,0,1-2.72.3c-2.71-1.09-5.47-2-8.23-3-2.56-.9-4.31-.28-5.09,1.73s.29,3.69,2.77,4.62c3.36,1.28,6.77,2.44,10.12,3.76a5.11,5.11,0,0,0,5.1-.58c2.17-1.48,4.47-2.78,6.6-4.32a2.73,2.73,0,0,1,3.75,0c2.23,1.65,4.67,3,7,4.56a4,4,0,0,0,3.64.62c4-1.41,7.88-2.89,11.81-4.38A3.47,3.47,0,0,0,112.6,120.08ZM89.4,135c-.06-1.08-.06-2-.18-2.88a3,3,0,0,0-3.37-2.91,3,3,0,0,0-3.16,2.9,18.84,18.84,0,0,0,.06,5.61,3.28,3.28,0,0,0,6.4,0A26.52,26.52,0,0,0,89.4,135Z"/><path class="cls-2" d="M147.41,217.75c-7.52,0-15,.11-22.57.13-13.32,0-26.65,0-40,.08-1.62,0-2.13-.29-2.12-2,.08-12.65,0-25.3,0-37.94,0-3.77,1.56-5.49,5.26-5.5q28.91-.12,57.8-.12a4.92,4.92,0,0,1,.67.1c.11,1.49,1,2.79,1,4.35C147.41,190.46,147.42,204.11,147.41,217.75Zm-27.14-26c1.36-1.27,2.32-2.07,3.15-3,1.51-1.66,1.53-3.71.14-5a3.3,3.3,0,0,0-4.85.22c-3,2.87-5.86,5.83-8.78,8.77a3.37,3.37,0,0,0,2.47,5.79h4.15c-.73.81-1.15,1.29-1.59,1.76s-1,.94-1.41,1.46a3.39,3.39,0,0,0-.12,4.68,3.21,3.21,0,0,0,4.83.07c3.06-2.89,6-5.9,9-8.9a3.27,3.27,0,0,0,.72-3.76,3.36,3.36,0,0,0-3.22-2.07C123.47,191.72,122.22,191.74,120.27,191.74Z"/><path class="cls-3" d="M158.37,126.12c2.11-1.41,3-3.69,3.88-5.87a30.25,30.25,0,0,0,.54-21.09c-3.85-11.86-7.73-23.71-11.38-35.63A105.34,105.34,0,0,0,137.31,34,96.92,96.92,0,0,0,102.24,3c-.7-.36-1.64-.49-1.84-1.48,5.1,1,9.57,3.57,14,6.1C132.62,18,145.78,33,154.45,52.08c3.31,7.28,5.31,15,7.81,22.58,2.81,8.49,5.48,17,8.12,25.57,3.57,11.55.69,21.26-8.36,29.26-8.78,7.76-17.49,15.61-26.23,23.42-2.86,2.55-5.71,5.12-8.59,7.65a3.54,3.54,0,0,0-1.45,3.56c.26,1.11-.06,1.46-1.2,1.42-2.22-.07-4.46,0-7,0,1.92-1.79,3.66-3.47,5.46-5.1q6.27-5.67,12.58-11.3a3.86,3.86,0,0,0,1.55-3.11,15.46,15.46,0,0,0,6.19-5.65c1.89.09,3.2-1.06,4.47-2.19,3.12-2.78,6.18-5.61,9.29-8.39A4.49,4.49,0,0,0,158.37,126.12Z"/><path class="cls-4" d="M96.79,89.54a98.64,98.64,0,0,0-19.42-4.42c-2.36-.29-4.76-.28-7.14-.42-7.7-3.88-15.07-3.37-22.07,1.72l-3.49-.12c3-2.77,6.78-3.82,10.51-4.85,12.24-3.4,24.76-4,37.38-3.46a99.15,99.15,0,0,1,28.37,4.75c5.22,1.78,8.78,5.36,11.85,9.66a3,3,0,0,1,.5,1.7c.45,18.32-6.54,32.89-21.83,43.26a14.19,14.19,0,0,1-2,1c2-2.69,4.71-4.74,6.8-7.38a46.49,46.49,0,0,0,9.41-22,2,2,0,0,0-.86-1.94,93.23,93.23,0,0,0-21.68-14.73c3.39-3.85,11.55-5,17,0,2,1.83,4,1.65,5.31-.06s.91-3.4-1-5.1a18.67,18.67,0,0,0-16.12-4.64C103.62,83.25,99.35,85.14,96.79,89.54Z"/><path class="cls-5" d="M75.89,180.27,70.05,175c1.21-2.2.69-4-1.18-5.57-2.89-2.5-5.69-5.12-8.72-7.86,2.18-.55,4.12-.23,6-.33,3-.14,4-1.2,4.09-4.18,0-2,.1-3.92,0-5.87-.09-1.51.38-1.83,1.79-1.42a51.44,51.44,0,0,0,16.75,1.77,41,41,0,0,0,10.46-1.62c2.14-.66,2.61-.05,2.41,2a44.06,44.06,0,0,0,0,4.74c0,3.49,1,4.48,4.64,4.49h5.26c-1.8,3.14-4.16,4.57-7.36,4.57-5.42,0-10.84,0-16.26.06C80.49,165.85,76,170.4,76,177.79,76,178.62,75.92,179.45,75.89,180.27Z"/><path class="cls-3" d="M136.48,143.88c-2.78-1.53-3.61-1.41-6,.74-3.27,3-6.58,5.93-9.83,8.94a5,5,0,0,1-4.92,1.34,52.87,52.87,0,0,0-5.79-.67,2.32,2.32,0,0,1-1.08-.24c-1-.81-.35-7.27.85-7.88a55.18,55.18,0,0,0,22.93-21.36,2.33,2.33,0,0,1,2.14-1.32c4.57-.14,9.17.47,13.72-.42,1-.2,1.45.55,1.8,1.35a2.07,2.07,0,0,1-.39,2.66c-2.36,2.09-4.67,4.25-7.09,6.26-2,1.65-3.28,4.1-1.23,6.39C139.53,140.62,138.08,142.35,136.48,143.88Z"/><path class="cls-3" d="M63.4,150.3c-.07,4.92.63,4.18-4,4.33a5.6,5.6,0,0,0-2,.1c-3.15,1.48-5.12-.31-7.24-2.25-8.88-8.11-17.85-16.12-26.78-24.17-1.26-1.15-2.84-2.19-1.57-4.33a1.6,1.6,0,0,1,1.82-1c4.33.87,8.71.29,13.06.4a2.86,2.86,0,0,1,2.74,1.48,54.38,54.38,0,0,0,22.82,21.19C64.3,147.15,63,149,63.4,150.3Z"/><path class="cls-4" d="M147.41,217.75c0-13.64,0-27.29.05-40.94,0-1.56-.85-2.86-1-4.35.9,0,1.8-.14,2.69-.11,3.43.11,5.06,1.77,5.08,5.22,0,7.37,0,14.74,0,22.11,0,5.41,0,10.82.07,16.24,0,1.62-.49,2.09-2,2S149.06,217.78,147.41,217.75Z"/><path class="cls-5" d="M25.39,116.55c2-4.41,4.2-8.45,6.71-13a68.21,68.21,0,0,0,3.22,13Z"/><path class="cls-5" d="M136.62,116.54a68.13,68.13,0,0,0,3.16-13c2.57,4.43,4.71,8.52,6.76,13Z"/><path class="cls-1" d="M136.48,143.88c1.6-1.53,3.05-3.26,5.14-4.21l1.69.68a15.42,15.42,0,0,1-6.19,5.66C136.91,145.3,136.69,144.59,136.48,143.88Z"/></svg>