<svg id="Capa_1" data-name="Capa 1" xmlns="http://www.w3.org/2000/svg" viewBox="0 0 44.55 56.34"><defs><style>.cls-1{fill:#54270e;}</style></defs><path class="cls-1" d="M12.36,56.34C11.21,56.34,11,56.15,11,55V45.77c0-1.75-.64-2.4-2.36-2.4H1.26C.2,43.37,0,43.18,0,42.11V33.93Q0,24.1,0,14.29A1.61,1.61,0,0,1,.58,13Q7.33,6.82,14,.64A2.23,2.23,0,0,1,15.69,0l7.89,0h8.61c1.16,0,1.35.19,1.35,1.33V3.26c0,2.48,0,5,0,7.43a2.33,2.33,0,0,0,.6,1.7,2.29,2.29,0,0,0,1.66.6h7.49c1.08,0,1.27.19,1.27,1.25v40.9c0,1-.18,1.21-1.21,1.21h-31Zm2.77-27.08c-1.8,0-2.47.67-2.47,2.47V52.36c0,1.77.65,2.42,2.42,2.42H40.57c1.77,0,2.42-.65,2.42-2.41V17c0-1.75-.64-2.41-2.37-2.41H29.85c-1.72,0-2.39.67-2.4,2.4V27.58a5.91,5.91,0,0,1-.08,1,.69.69,0,0,1-.62.59,8.47,8.47,0,0,1-1.13.07H15.13ZM6.36,41.71c.76,0,1.52,0,2.28,0h0a2.37,2.37,0,0,0,1.78-.61A2.45,2.45,0,0,0,11,39.35c0-1.76,0-3.52,0-5.28,0-2.16,0-4.32,0-6.48a2.05,2.05,0,0,1,.74-1.75q5.84-5.28,11.61-10.61l2-1.84a1.43,1.43,0,0,1,1-.41h2.08l1.13,0h0a2.21,2.21,0,0,0,1.7-.6,2.33,2.33,0,0,0,.59-1.69c0-2.26,0-4.52,0-6.79a2.41,2.41,0,0,0-.6-1.73,2.36,2.36,0,0,0-1.72-.62c-1.85,0-3.66,0-5.48,0s-3.63,0-5.44,0h0A2.36,2.36,0,0,0,17,2.17a2.39,2.39,0,0,0-.6,1.73c0,3.19,0,6.38,0,9.57v1.6c0,.94-.2,1.14-1.14,1.14H9.56c-1.89,0-3.77,0-5.66,0h0a2.35,2.35,0,0,0-1.74.61,2.38,2.38,0,0,0-.6,1.72c0,2.56,0,5.12,0,7.69v5.51c0,2.56,0,5.12,0,7.68a2.38,2.38,0,0,0,.61,1.73,2.27,2.27,0,0,0,1.66.61C4.74,41.73,5.55,41.71,6.36,41.71ZM23.83,27.62a1.93,1.93,0,0,0,2-2.15v-7.7l-1-.48-.9-.46-9.63,8.82.85,1.8,1,.17h7.65Zm-15-13,3.89,0h0a2,2,0,0,0,1.52-.57,2.13,2.13,0,0,0,.56-1.58V6a1.67,1.67,0,0,0-1-1.77l-.86-.36L1.78,14l3,.55a2,2,0,0,0,.49.06Z"/></svg>