<svg width="24" height="24" viewBox="0 0 24 24" fill="none" xmlns="http://www.w3.org/2000/svg">
  <path d="m4.5 3.75 15 16.5m-4.978-5.475a3.75 3.75 0 0 1-5.044-5.55" stroke="#fff" stroke-width="1.5" stroke-linecap="round" stroke-linejoin="round"/>
  <path d="M6.938 6.431C3.112 8.363 1.5 12 1.5 12s3 6.75 10.5 6.75c1.757.014 3.493-.39 5.063-1.181m2.493-1.716C21.6 14.025 22.5 12 22.5 12s-3-6.75-10.5-6.75c-.65-.001-1.3.052-1.94.16" stroke="#fff" stroke-width="1.5" stroke-linecap="round" stroke-linejoin="round"/>
  <path d="M12.703 8.316a3.74 3.74 0 0 1 3.028 3.328" stroke="#fff" stroke-width="1.5" stroke-linecap="round" stroke-linejoin="round"/>
</svg>
