<svg width="24" height="24" viewBox="0 0 24 24" fill="none" xmlns="http://www.w3.org/2000/svg">
  <path d="M20.775 14.006A9.022 9.022 0 0 0 21 11.925c-.038-4.96-4.144-8.972-9.094-8.925A9 9 0 0 0 9 20.484a2.241 2.241 0 0 0 3-2.118V18a2.242 2.242 0 0 1 2.25-2.25h4.331a2.25 2.25 0 0 0 2.194-1.744v0Z" stroke="#fff" stroke-width="1.5" stroke-linecap="round" stroke-linejoin="round"/>
  <path d="M12 8.25A1.125 1.125 0 1 0 12 6a1.125 1.125 0 0 0 0 2.25Zm-4.219 2.438a1.125 1.125 0 1 0 0-2.25 1.125 1.125 0 0 0 0 2.25Zm0 4.875a1.125 1.125 0 1 0 0-2.25 1.125 1.125 0 0 0 0 2.25Zm8.438-4.875a1.125 1.125 0 1 0 0-2.25 1.125 1.125 0 0 0 0 2.25Z" fill="#fff"/>
</svg>
