<?xml version='1.0' encoding='iso-8859-1'?>
<svg version="1.1" xmlns="http://www.w3.org/2000/svg" viewBox="0 0 489 489" xmlns:xlink="http://www.w3.org/1999/xlink" enable-background="new 0 0 489 489">
  <g>
    <g>
      <path d="m365.2,144.6c-12.3,0-24.2,1.8-35.4,5.2v-114.4h-96.7l7.2-35.4h-149.8l6.8,35.4h-97.3v453.6h329.8v-101.9c11.2,3.4 23.1,5.2 35.4,5.2 68.7,0 123.8-56.2 123.8-123.8s-55.2-123.9-123.8-123.9zm-149.8-123.8l-10.4,49.9h-79.1l-9.4-49.9h98.9zm93.6,447.4h-288.2v-412h80.6l6.8,35.4h113.4l7.2-35.4h80.2v102c-27.3,14-48.7,37.8-59.6,66.6h-200.5v20.7h194.6c-1.4,7.4-2.1,15.1-2.1,22.9 0,13.4 2.2,26.3 6.2,38.5h-198.7v20.8h207.7c11.9,21.7 30.2,39.6 52.4,51v89.5zm56.2-97.8c-57.2,0-103-46.8-103-103s45.8-103 103-103 103,46.8 103,103-46.8,103-103,103z"/>
      <rect width="233" x="48.9" y="143.6" height="20.8"/>
      <rect width="233" x="48.9" y="388.1" height="20.8"/>
      <polygon points="375.6,203.9 354.8,203.9 354.8,257 301.7,257 301.7,277.8 354.8,277.8 354.8,331.9 375.6,331.9 375.6,277.8     429.7,277.8 429.7,257 375.6,257   "/>
    </g>
  </g>
</svg>
