<?xml version="1.0" standalone="no"?>
<!DOCTYPE svg PUBLIC "-//W3C//DTD SVG 20010904//EN"
 "http://www.w3.org/TR/2001/REC-SVG-20010904/DTD/svg10.dtd">
<svg version="1.0" xmlns="http://www.w3.org/2000/svg"
 width="169.000000pt" height="169.000000pt" viewBox="0 0 169.000000 169.000000"
 preserveAspectRatio="xMidYMid meet">
<metadata>
Created by potrace 1.16, written by Peter Selinger 2001-2019
</metadata>
<g transform="translate(0.000000,169.000000) scale(0.100000,-0.100000)"
fill="#000000" stroke="none">
<path d="M109 1581 l-29 -29 0 -537 c0 -375 3 -543 11 -558 28 -54 38 -57 263
-57 174 0 212 3 226 15 19 17 16 65 -4 65 -6 0 -100 2 -209 3 l-197 2 -3 523
c-2 431 0 521 11 517 8 -3 137 -5 288 -5 l275 0 97 -93 c53 -51 103 -93 110
-93 15 1 32 25 32 45 0 18 -176 198 -212 217 -22 11 -88 14 -328 14 l-302 0
-29 -29z"/>
<path d="M678 1261 l-33 -29 -3 -529 c-1 -290 0 -537 2 -549 3 -11 18 -33 32
-47 l27 -27 427 0 428 0 26 31 26 31 0 418 c0 230 -4 429 -9 442 -8 22 -186
206 -254 264 l-29 24 -304 0 -304 0 -32 -29z m727 -169 c101 -99 120 -123 119
-147 0 -17 -1 -198 -2 -402 l-2 -373 -400 0 -400 0 0 513 c0 283 3 517 7 520
3 4 131 7 283 7 l276 0 119 -118z"/>
<path d="M1216 1182 c-3 -5 -6 -59 -7 -120 -2 -166 10 -178 173 -181 87 -2 99
0 118 19 19 19 20 24 7 43 -17 25 -10 24 -129 26 l-93 1 3 96 c2 63 -1 100 -9
110 -12 15 -55 19 -63 6z"/>
<path d="M852 702 c-13 -20 -13 -24 3 -42 17 -19 32 -20 271 -20 216 0 255 2
268 16 9 8 16 21 16 28 0 33 -28 37 -285 39 l-258 2 -15 -23z"/>
<path d="M874 563 c-26 -5 -37 -38 -23 -65 9 -17 28 -18 275 -18 l264 0 12 26
c11 23 10 29 -11 45 -21 18 -42 19 -260 18 -130 -1 -246 -4 -257 -6z"/>
<path d="M872 403 c-23 -9 -33 -41 -20 -63 12 -19 23 -20 272 -20 235 0 260 2
272 18 18 23 17 37 -2 56 -13 14 -50 16 -262 15 -136 0 -253 -3 -260 -6z"/>
<path d="M289 1103 c-10 -19 -9 -26 6 -43 16 -18 31 -20 143 -20 143 0 168 10
151 58 l-9 27 -140 0 c-134 0 -140 -1 -151 -22z"/>
<path d="M299 951 c-21 -17 -22 -22 -11 -45 l12 -27 137 3 c135 3 138 3 150
28 10 20 9 27 -4 42 -14 15 -34 18 -138 18 -105 0 -126 -3 -146 -19z"/>
<path d="M289 789 c-8 -16 -8 -27 1 -45 12 -22 16 -23 149 -21 133 2 136 2
148 27 10 20 9 27 -4 42 -14 16 -34 18 -149 18 -126 0 -134 -1 -145 -21z"/>
</g>
</svg>
