<svg width="32" height="32" viewBox="0 0 32 32" fill="none" xmlns="http://www.w3.org/2000/svg">
<style>
:root {
  --primary: #170F1E;
}

@media (prefers-color-scheme: dark) {
  :root {
    --primary: #E5E1E6;
  }
}
</style>
<path fill-rule="evenodd" clip-rule="evenodd" d="M1.16082 10.0187C0.828343 10.8406 0.568936 11.6783 0.38054 12.5236C0.38052 12.5235 0.38056 12.5236 0.38054 12.5236C-1.07022 19.0334 1.68618 25.9942 7.64056 29.6395L7.63789 29.6442L7.96344 29.8321C7.97607 29.8395 7.98872 29.8468 8.00138 29.8541C8.01403 29.8614 8.02668 29.8687 8.03935 29.8759L8.50377 30.1441L8.5089 30.1352C16.0803 34.154 25.5337 31.4819 29.8541 23.9987C34.1745 16.5154 31.7619 6.9925 24.4959 2.44489L24.5011 2.4359L23.6352 1.93598L23.6325 1.94071C18.374 -0.917331 12.1808 -0.521969 7.42511 2.49113C7.42512 2.49115 7.4251 2.49111 7.42511 2.49113C7.13752 2.67333 6.85516 2.86505 6.57861 3.06627C6.5786 3.06625 6.57862 3.0663 6.57861 3.06627C4.82345 4.34332 3.30122 6.00036 2.14596 8.00133C1.76591 8.65961 1.43795 9.33366 1.16082 10.0187ZM5.10084 26.3078C4.28061 24.1987 4.14336 21.5051 4.69823 18.6061C3.88108 17.8398 3.15948 17.0732 2.54712 16.3222C1.96859 15.6126 1.48173 14.91 1.10372 14.2282C0.584474 18.6116 2.03112 23.0646 5.10084 26.3078ZM1.41528 12.489C1.73001 13.4385 2.37437 14.5282 3.32201 15.6904C3.79563 16.2712 4.34072 16.865 4.95047 17.4629C5.46984 15.3823 6.33497 13.2237 7.5491 11.1208C8.26986 9.87241 9.06909 8.72072 9.92225 7.67914C9.3856 7.13878 8.89861 6.60057 8.46612 6.07016C7.88863 5.3619 7.40249 4.66045 7.02476 3.97984C5.43947 5.16237 4.06346 6.67978 3.01184 8.50125C2.27342 9.78023 1.74479 11.1228 1.41528 12.489ZM7.85046 3.40618C8.19693 4.04627 8.66245 4.72877 9.24101 5.43833C9.63677 5.92369 10.0824 6.41808 10.574 6.91636C13.3241 3.8319 16.5424 1.85877 19.4771 1.40709C15.4673 0.449944 11.2562 1.20621 7.85046 3.40618ZM26.8994 5.69243C27.9756 8.4598 27.8759 12.2334 26.5798 16.1572C27.257 16.3338 27.9079 16.4725 28.526 16.5726C29.4299 16.7188 30.2538 16.7807 30.9814 16.7607C31.1837 12.7114 29.7331 8.68643 26.8994 5.69243ZM30.8974 17.7626C30.1191 17.7758 29.2685 17.7056 28.3663 17.5596C27.6908 17.4502 26.9813 17.2976 26.2451 17.1031C25.7696 18.3627 25.1718 19.6308 24.4511 20.8792C23.237 22.9821 21.8002 24.8105 20.2581 26.3006C21.0806 26.5297 21.8673 26.7048 22.6071 26.8246C24.0875 27.0642 25.3534 27.0774 26.3332 26.8751C27.3515 25.9067 28.2498 24.7777 28.9882 23.4987C30.0399 21.6773 30.666 19.7268 30.8974 17.7626ZM24.9827 28.0146C24.2032 28.0281 23.3512 27.9578 22.4473 27.8116C21.4908 27.6568 20.4662 27.4152 19.3942 27.0907C17.1609 29.0208 14.7596 30.2487 12.523 30.5929C16.8666 31.6297 21.4463 30.656 24.9827 28.0146ZM23.5852 20.3793C22.3044 22.5977 20.775 24.4843 19.153 25.9673C17.0963 25.3007 14.8587 24.3237 12.595 23.0578L18.0141 13.6718C20.5165 15.0722 23.0044 16.1368 25.2799 16.8286C24.8295 18.009 24.2654 19.2011 23.5852 20.3793ZM12.0951 23.9238C14.2037 25.1038 16.302 26.0454 18.2716 26.7264C17.4707 27.3747 16.6546 27.9249 15.8411 28.3687C13.2785 29.7669 10.8777 30.0508 9.02056 29.249L12.0951 23.9238ZM5.36797 22.3221C5.34561 21.3957 5.41401 20.4138 5.57499 19.3961C7.18435 20.7915 9.09661 22.1671 11.2282 23.4255L8.14663 28.763C6.44426 27.579 5.44031 25.3179 5.36797 22.3221ZM11.7282 22.5595C9.44318 21.21 7.43039 19.7308 5.79167 18.2532C6.26498 16.107 7.13417 13.8392 8.41498 11.6207C9.09518 10.4426 9.8455 9.358 10.6426 8.37776C12.4118 10.0328 14.6261 11.6851 17.1472 13.1734L11.7282 22.5595ZM17.6472 12.3075C15.163 10.8403 13.0005 9.21987 11.2907 7.61493C12.823 5.88966 14.4965 4.53839 16.1591 3.63126C18.7898 2.19598 21.2499 1.93487 23.1264 2.8172L17.6472 12.3075ZM25.6164 15.8858C23.4132 15.2201 20.9791 14.1843 18.514 12.8058L23.9843 3.33105C25.6072 4.53844 26.5617 6.75957 26.6322 9.67791C26.6779 11.5713 26.3444 13.6963 25.6164 15.8858Z" fill="var(--primary)"/>
</svg>
