<?xml version="1.0" encoding="iso-8859-1"?>
<!-- Generator: Adobe Illustrator 16.0.0, SVG Export Plug-In . SVG Version: 6.00 Build 0)  -->
<!DOCTYPE svg PUBLIC "-//W3C//DTD SVG 1.1//EN" "http://www.w3.org/Graphics/SVG/1.1/DTD/svg11.dtd">
<svg version="1.1" id="Capa_1" xmlns="http://www.w3.org/2000/svg" xmlns:xlink="http://www.w3.org/1999/xlink" x="0px" y="0px"
	 width="342.734px" height="342.734px" viewBox="0 0 342.734 342.734" style="enable-background:new 0 0 342.734 342.734;"
	 xml:space="preserve">
<g>
	<path d="M329.873,113.575H145.104V58.704c0-5.134-3.052-9.778-7.768-11.81c-4.705-2.025-10.187-1.074-13.922,2.456L4.031,162.012
		C1.458,164.443,0,167.827,0,171.366s1.458,6.923,4.031,9.355l119.383,112.661c2.437,2.3,5.613,3.508,8.83,3.508
		c1.72,0,3.454-0.346,5.092-1.053c4.716-2.03,7.768-6.676,7.768-11.809v-54.871h184.769c7.104,0,12.861-5.76,12.861-12.86v-89.862
		C342.734,119.333,336.976,113.575,329.873,113.575z M317.012,203.434H132.244c-7.103,0-12.863,5.759-12.863,12.862v37.91
		L31.6,171.365l87.781-82.842v37.912c0,7.103,5.76,12.861,12.863,12.861h184.768V203.434L317.012,203.434z"/>
</g>
<g>
</g>
<g>
</g>
<g>
</g>
<g>
</g>
<g>
</g>
<g>
</g>
<g>
</g>
<g>
</g>
<g>
</g>
<g>
</g>
<g>
</g>
<g>
</g>
<g>
</g>
<g>
</g>
<g>
</g>
</svg>
