<svg width="576" height="194" fill="none" xmlns="http://www.w3.org/2000/svg">
	<path fill-rule="evenodd" clip-rule="evenodd" d="M48.508 180.99c46.387 26.782 105.701 10.889 132.482-35.498 26.782-46.387 10.889-105.701-35.498-132.482C99.105-13.772 39.791 2.12 13.01 48.508-13.772 94.895 2.12 154.21 48.508 180.99Zm-20.025-68.191c-3.364 17.576-2.532 33.905 2.44 46.692-18.61-19.663-27.38-46.659-24.232-73.233 2.292 4.133 5.244 8.394 8.751 12.696 3.712 4.552 8.087 9.2 13.04 13.845ZM20.14 95.123c-5.745-7.046-9.652-13.652-11.56-19.41a90.945 90.945 0 0 1 9.679-24.174c6.376-11.043 14.718-20.242 24.329-27.412 2.29 4.127 5.237 8.38 8.739 12.673 2.144 2.63 4.51 5.292 7.08 7.966a9.09 9.09 0 0 1 4.198-4.379 124.64 124.64 0 0 1-6.58-7.417c-3.508-4.302-6.33-8.44-8.431-12.32C68.24 7.312 93.77 2.727 118.08 8.53c-16.983 2.614-35.532 13.632-51.683 30.891.098-.003.197-.004.296-.004h8.186c7.45-7.281 15.287-13.148 23.085-17.402 15.949-8.702 30.863-10.285 42.239-4.936l-7.101 12.3a9.094 9.094 0 0 1 3.28 6.442l9.022-15.626c9.84 7.32 15.626 20.785 16.053 38.477.278 11.48-1.744 24.362-6.157 37.636-6.051-1.829-12.388-4.117-18.9-6.85v6.558c12.739 5.176 24.86 8.705 35.572 10.439 5.469.885 10.625 1.311 15.344 1.231-1.404 11.908-5.199 23.732-11.575 34.775a90.948 90.948 0 0 1-16.097 20.47c-5.94 1.226-13.614 1.146-22.588-.306-4.485-.726-9.255-1.788-14.242-3.177a135.42 135.42 0 0 0 4.789-4.868 8.017 8.017 0 0 1-.155.004l-.141.001h-8.186a125.92 125.92 0 0 1-3.006 2.842c-8.953-2.902-18.471-6.774-28.207-11.567v6.736c7.806 3.727 15.483 6.882 22.863 9.433-4.855 3.93-9.803 7.266-14.735 9.957-15.536 8.476-30.09 10.197-41.35 5.336l6.997-12.119a9.094 9.094 0 0 1-3.835-5.48l-8.46 14.653c-10.32-7.178-16.407-20.886-16.845-39.048-.136-5.617.28-11.569 1.255-17.739a210.74 210.74 0 0 0 11.68 9.401v-5.743c0-.602.058-1.19.17-1.759a195.581 195.581 0 0 1-10.536-8.828c1.225-5.558 2.889-11.25 4.998-16.995a9.091 9.091 0 0 1-5.128-3.596 140.536 140.536 0 0 0-4.97 15.8c-3.696-3.625-7-7.225-9.872-10.746Zm55.78 90.347c26.333 6.285 54.097.382 75.537-15.631-4.725.082-9.891-.344-15.37-1.231-5.799-.938-12.011-2.403-18.51-4.37-13.539 11.701-28.097 19.145-41.656 21.232Zm97.02-84.999c5.479.887 10.474 1.262 14.884 1.141 1.227-24.55-7.567-48.95-24.747-67.102 6.525 16.777 5.921 39.655-1.937 63.443 4.106 1.07 8.052 1.912 11.8 2.518Z" fill="url(#a)"/>
	<path d="M54.124 72.369H42l-.001.71v11.413h12.124V72.369h12.123v48.492H54.124l-.001 12.123h12.124v24.246H78.37v-36.369h12.123v-12.123h24.246v36.369h12.123v-12.123h12.122l.001-12.123h12.123v-12.123h-12.123v12.123h-12.123V36h-12.123v12.123h-12.123v12.123H90.493v12.123h12.122l.001-12.123h12.122v11.905l.001.218v24.246H90.493v12.123H78.37V48.123H66.247v12.123H54.124v12.123ZM212.924 0h14.454v21.552h40.603V0h14.454v58.476h-14.454v-22.89h-40.603v22.89h-14.454V0ZM301.871 10.442c.891-3.007 2.367-5.485 4.428-7.435C308.416 1.002 311.312 0 314.988 0h17.461c3.732 0 6.712 1.002 8.94 3.007 2.227 1.95 3.787 4.428 4.678 7.435l14.37 48.034h-16.041l-3.927-14.034h-26.484l3.342-14.035h19.216l-4.512-16.373h-16.208l-12.365 44.442h-16.04l14.453-48.034ZM364.577 10.442c0-1.504.279-2.896.836-4.177.557-1.28 1.281-2.367 2.172-3.258a9.835 9.835 0 0 1 3.258-2.172A9.76 9.76 0 0 1 374.77 0h54.89v14.034h-50.629v30.408h50.629v14.034h-54.305c-1.504 0-2.924-.279-4.261-.836-1.337-.556-2.479-1.28-3.426-2.172a11.03 11.03 0 0 1-2.255-3.258 9.757 9.757 0 0 1-.836-3.926V10.442ZM437.21 0h14.454v22.89h13.033L482.409 0h16.709l-21.805 28.402 25.899 30.074h-18.464l-19.299-21.553h-13.785v21.553H437.21V0ZM238.072 81.472H210V67.438h70.43v14.034h-27.905v44.441h-14.453V81.472Z" fill="#E5E1E6"/>
	<path fill-rule="evenodd" clip-rule="evenodd" d="M285.845 77.88c0-1.504.278-2.896.835-4.177.557-1.28 1.281-2.367 2.172-3.258a9.829 9.829 0 0 1 3.259-2.172 9.756 9.756 0 0 1 3.926-.835h49.543c1.504 0 2.924.278 4.261.835 1.337.557 2.479 1.309 3.425 2.256.947.89 1.699 1.977 2.256 3.258a9.183 9.183 0 0 1 .836 3.842v37.842c0 1.504-.279 2.896-.836 4.177a10.718 10.718 0 0 1-2.256 3.342c-.891.891-1.977 1.615-3.258 2.172a10.055 10.055 0 0 1-3.843.751h-49.543c-1.504 0-2.924-.278-4.261-.835-1.337-.557-2.478-1.281-3.425-2.172a11.02 11.02 0 0 1-2.256-3.258 9.754 9.754 0 0 1-.835-3.926V77.88Zm56.059 33.999V81.472h-41.606v30.407h41.606ZM363.862 77.88c0-1.504.279-2.896.836-4.177.557-1.28 1.281-2.367 2.172-3.258a9.835 9.835 0 0 1 3.258-2.172 9.764 9.764 0 0 1 3.927-.835h40.019c1.504 0 2.896.278 4.177.835 1.281.557 2.367 1.309 3.258 2.256.947.89 1.671 1.977 2.173 3.258a9.182 9.182 0 0 1 .835 3.842v12.197c1.504 0 2.841.278 4.01.835 1.226.557 2.256 1.309 3.092 2.255.835.892 1.448 1.978 1.838 3.258.445 1.226.668 2.506.668 3.843v15.454c0 1.504-.279 2.896-.835 4.177a10.718 10.718 0 0 1-2.256 3.342c-.891.891-1.977 1.615-3.259 2.172a10.055 10.055 0 0 1-3.843.751h-60.07V77.88Zm55.809 33.999v-8.938h-41.355v8.938h41.355Zm-9.607-22.053v-8.354h-31.748v8.354h31.748Z" fill="#E5E1E6"/>
	<path d="M440.781 77.88c0-1.504.278-2.896.835-4.177.557-1.28 1.281-2.367 2.172-3.258a9.829 9.829 0 0 1 3.259-2.172 9.76 9.76 0 0 1 3.926-.835h52.635v14.034h-48.374v7.518h41.773v14.034h-41.773v8.855h48.374v14.034h-52.05c-1.504 0-2.924-.278-4.261-.835-1.336-.557-2.478-1.281-3.425-2.172a11.02 11.02 0 0 1-2.256-3.258 9.754 9.754 0 0 1-.835-3.926V77.88ZM212.924 145.966c0-1.503.279-2.896.836-4.177.557-1.28 1.281-2.366 2.172-3.257a9.828 9.828 0 0 1 3.258-2.172 9.76 9.76 0 0 1 3.927-.836h48.54v14.034h-44.279v13.45h37.596v14.034h-37.596V194h-14.454v-48.034ZM277.033 145.966c0-1.503.278-2.896.835-4.177.557-1.28 1.281-2.366 2.173-3.257a9.817 9.817 0 0 1 3.258-2.172 9.76 9.76 0 0 1 3.927-.836h52.634v14.034h-48.374v7.519h41.774v14.034h-41.774v8.855h48.374V194h-52.05a10.98 10.98 0 0 1-4.26-.835c-1.337-.557-2.479-1.281-3.426-2.172a11.02 11.02 0 0 1-2.256-3.258 9.758 9.758 0 0 1-.835-3.927v-37.842ZM347.382 179.966h55.892v-8.855h-45.449c-1.504 0-2.896-.278-4.177-.835-1.281-.557-2.395-1.281-3.342-2.172a11.885 11.885 0 0 1-2.172-3.258 10.676 10.676 0 0 1-.752-3.927v-14.953c0-1.503.278-2.896.835-4.177.557-1.28 1.281-2.366 2.172-3.257a9.821 9.821 0 0 1 3.259-2.172 9.755 9.755 0 0 1 3.926-.836h53.637v14.034h-49.376v7.519h45.449c1.504 0 2.897.278 4.178.835 1.281.557 2.367 1.309 3.258 2.256.947.891 1.671 1.977 2.172 3.258a9.181 9.181 0 0 1 .836 3.842v16.29c0 1.504-.279 2.896-.836 4.177a10.728 10.728 0 0 1-2.255 3.341c-.892.891-1.978 1.615-3.259 2.172a10.056 10.056 0 0 1-3.843.752h-60.153v-14.034ZM445.795 149.558h-28.071v-14.034h70.429v14.034h-27.904V194h-14.454v-44.442Z" fill="#E5E1E6"/>
	<path fill-rule="evenodd" clip-rule="evenodd" d="M512.025 79.105c0-1.72.319-3.314.956-4.78.638-1.466 1.467-2.71 2.486-3.73a11.251 11.251 0 0 1 3.73-2.485c1.466-.637 2.964-.956 4.494-.956h40.356c1.721 0 3.315.319 4.781.956 1.466.637 2.71 1.498 3.729 2.582 1.084 1.02 1.913 2.262 2.487 3.728.637 1.403.956 2.869.956 4.398l-.094 12.114c0 1.53-.319 2.995-.956 4.398a10.29 10.29 0 0 1-1.818 3.035c.045.048.089.098.133.147.836.891 1.448 1.977 1.838 3.258.446 1.226.669 6.237.669 7.574v6.127c0 1.504-.279 2.896-.836 4.177a10.702 10.702 0 0 1-2.256 3.341c-.891.891-1.977 1.615-3.258 2.172a10.037 10.037 0 0 1-3.843.752h-12.645v-12.125l8.384-.043v-7.418h-37.721c-1.53 0-3.028-.319-4.494-.956a11.267 11.267 0 0 1-3.73-2.486c-1.019-1.02-1.848-2.263-2.486-3.73-.637-1.465-.956-3.059-.956-4.78l.094-15.27Zm47.432 2.67v9.56h-30.889v-9.56h30.889Z" fill="#E5E1E6"/><path d="M526.841 113.788v12.125h-14.91v-17.721s2.796 5.596 10.251 5.596h4.659Z" fill="#E5E1E6"/>
	<defs>
		<linearGradient id="a" x1="27.485" y1="27" x2="167.485" y2="167" gradientUnits="userSpaceOnUse">
			<stop stop-color="#FFE27D"/>
			<stop offset=".505" stop-color="#64E3FF"/>
			<stop offset="1" stop-color="#9192FF"/>
		</linearGradient>
	</defs>
</svg>