<svg xmlns="http://www.w3.org/2000/svg" viewBox="0 0 24 24" style="enable-background:new 0 0 24 24" xml:space="preserve">
  <path style="fill:none" d="M0 0h24v24H0z"/>
  <path d="M17.25 21c-2.21 0-4-1.79-4-4s1.79-4 4-4 4 1.79 4 4-1.79 4-4 4zm0-6.5a2.5 2.5 0 0 0 0 5 2.5 2.5 0 0 0 0-5zm2-4h-4c-.96 0-1.75-.79-1.75-1.75v-4c0-.96.79-1.75 1.75-1.75h4c.96 0 1.75.79 1.75 1.75v4c0 .96-.79 1.75-1.75 1.75zm-4-6c-.14 0-.25.11-.25.25v4c0 .14.11.25.25.25h4c.14 0 .25-.11.25-.25v-4c0-.14-.11-.25-.25-.25h-4zm-4.54 6H3.79c-.27 0-.52-.14-.65-.38s-.14-.51 0-.74l3.46-6c.27-.46 1.03-.46 1.3 0l3.46 6c.13.23.13.52 0 .75s-.38.37-.65.37zM5.08 9h4.33L7.25 5.25 5.08 9zm5.58 10.47c.29.29.29.77 0 1.06-.15.15-.34.22-.54.22-.19 0-.38-.07-.53-.22l-2.34-2.34-2.34 2.34c-.15.15-.34.22-.53.22-.2 0-.39-.07-.54-.22a.754.754 0 0 1 0-1.06l2.35-2.34-2.35-2.35a.754.754 0 0 1 0-1.06c.3-.29.77-.29 1.07 0l2.34 2.34 2.34-2.34c.3-.29.77-.29 1.07 0 .29.29.29.77 0 1.06l-2.34 2.35 2.34 2.34z" style="fill:#fff"/>
</svg>
