<svg xmlns="http://www.w3.org/2000/svg" viewBox="0 0 24 24" style="enable-background:new 0 0 24 24" xml:space="preserve">
  <style>
    .st1{fill:#fff}
  </style>
  <path style="fill:none" d="M0 0h24v24H0z" id="bounding_area"/>
  <g id="design">
    <path class="st1" d="M10.66 16c-.19 0-.38-.07-.53-.22l-2.51-2.5a.754.754 0 0 1 0-1.06c.29-.29.77-.29 1.06 0l1.98 1.97 4.98-4.98c.29-.29.77-.29 1.06 0 .29.29.29.77 0 1.06l-5.51 5.51c-.15.15-.34.22-.53.22z"/>
    <path class="st1" d="M11.99 22c-2.58 0-5.02-.97-6.89-2.76a9.974 9.974 0 0 1-3.1-7C1.87 6.73 6.25 2.14 11.76 2c2.67-.06 5.21.91 7.14 2.76a9.974 9.974 0 0 1 3.1 7c.06 2.67-.91 5.21-2.76 7.14a9.974 9.974 0 0 1-7 3.1h-.25zm.02-18.5h-.21c-4.69.11-8.41 4.02-8.29 8.7.05 2.27.99 4.38 2.63 5.95s3.79 2.4 6.07 2.34c2.27-.05 4.38-.99 5.95-2.63s2.4-3.8 2.34-6.07a8.446 8.446 0 0 0-2.63-5.95 8.49 8.49 0 0 0-5.86-2.34z"/>
  </g>
</svg>
