<svg width="600" height="600" viewBox="0 0 600 600" fill="none" xmlns="http://www.w3.org/2000/svg">
<path d="M374.839 98.7177V85.856C374.839 75.3328 372.659 64.6553 365.587 56.8629C357.59 48.0513 344.289 37.9998 325.22 38C305.538 38.0002 292.527 48.7083 285.067 57.7087C278.949 65.0898 277.168 74.813 277.168 84.3999V98.7177M374.839 98.7177V98.7177C374.839 114.655 361.919 127.575 345.981 127.575H306.025C290.088 127.575 277.168 114.655 277.168 98.7177V98.7177M374.839 98.7177H456.23C494.211 98.7177 525 129.507 525 167.487V485.002C525 522.983 494.211 553.772 456.23 553.772H305.634M277.168 98.7177L189.943 100.486C152.514 101.244 122.567 131.804 122.567 169.241V346.157" stroke="black" stroke-width="42.981"/>
<g filter="url(#filter0_d_430_75)">
<path d="M328.069 453.069C335.286 445.851 335.286 434.149 328.069 426.931L210.451 309.314C203.233 302.096 191.531 302.096 184.314 309.314C177.096 316.531 177.096 328.233 184.314 335.451L288.863 440L184.314 544.549C177.096 551.767 177.096 563.469 184.314 570.686C191.531 577.904 203.233 577.904 210.451 570.686L328.069 453.069ZM50 458.482L315 458.482L315 421.518L50 421.518L50 458.482Z" fill="black"/>
</g>
<defs>
<filter id="filter0_d_430_75" x="46.5615" y="303.9" width="290.358" height="279.076" filterUnits="userSpaceOnUse" color-interpolation-filters="sRGB">
<feFlood flood-opacity="0" result="BackgroundImageFix"/>
<feColorMatrix in="SourceAlpha" type="matrix" values="0 0 0 0 0 0 0 0 0 0 0 0 0 0 0 0 0 0 127 0" result="hardAlpha"/>
<feOffset dy="3.43848"/>
<feGaussianBlur stdDeviation="1.71924"/>
<feComposite in2="hardAlpha" operator="out"/>
<feColorMatrix type="matrix" values="0 0 0 0 0 0 0 0 0 0 0 0 0 0 0 0 0 0 0.25 0"/>
<feBlend mode="normal" in2="BackgroundImageFix" result="effect1_dropShadow_430_75"/>
<feBlend mode="normal" in="SourceGraphic" in2="effect1_dropShadow_430_75" result="shape"/>
</filter>
</defs>
</svg>
