<svg width="309.56976" height="559.11761" version="1.1" viewBox="0 0 309.56975 559.11764" xml:space="preserve" xmlns="http://www.w3.org/2000/svg">
<g transform="translate(-74.763987)">
	
	
	
	
	
	
	
	
	
	
	
	
	
	
	
	
	
	
	
	
	
	
	
	
	
	
	
	
	
	
	
	
	
	
	
	
	
	
	
	
	
<rect x="140.85852" y="113.25" width="38.299999" height="252.25999" style="fill:#808080"/><polygon transform="translate(-.41247847)" points="127.248 113.248 160.419 27.85 193.589 113.248" style="fill:#9a87c9"/><path d="m166.17052 157.403h-12.328v-29.058c0-3.404 2.76-6.164 6.164-6.164s6.164 2.76 6.164 6.164z" style="fill:#333333"/><path d="m166.17052 210.236h-12.328v-29.058c0-3.404 2.76-6.164 6.164-6.164s6.164 2.76 6.164 6.164z" style="fill:#333333"/><rect x="140.85852" y="113.25" width="38.299999" height="6" style="fill:#666666"/><polygon transform="translate(-.41247847)" points="160.419 27.85 150.282 113.243 127.248 113.248" style="fill:#8172af"/><rect x="326.54352" y="120.511" width="38.299999" height="252.25999" style="fill:#999999"/><polygon transform="translate(-.41247847)" points="379.274 120.507 312.933 120.507 346.103 35.109" style="fill:#9a87c9"/><path d="m351.85752 177.41h-12.328v-29.058c0-3.404 2.76-6.164 6.164-6.164s6.164 2.76 6.164 6.164z" style="fill:#333333"/><rect x="326.54352" y="120.51" width="38.299999" height="6" style="fill:#808080"/><polygon transform="translate(-.41247847)" points="312.933 120.507 346.103 35.109 335.966 120.502" style="fill:#8172af"/><rect x="94.358528" y="158.368" width="38.299999" height="252.27" style="fill:#808080"/><polygon transform="translate(-.41247847)" points="80.751 158.373 113.921 72.975 147.092 158.373" style="fill:#a99ad8"/><rect x="268.14853" y="85.398003" width="38.299999" height="252.25999" style="fill:#999999"/><polygon transform="translate(-.41247847)" points="254.537 85.398 287.708 0 320.878 85.398" style="fill:#a798d8"/><path d="m293.45952 129.553h-12.328v-29.058c0-3.404 2.76-6.164 6.164-6.164s6.164 2.76 6.164 6.164z" style="fill:#333333"/><path d="m293.45952 183.12h-12.328v-29.058c0-3.404 2.76-6.164 6.164-6.164s6.164 2.76 6.164 6.164z" style="fill:#333333"/><path d="m293.45952 236.687h-12.328v-29.058c0-3.404 2.76-6.164 6.164-6.164s6.164 2.76 6.164 6.164z" style="fill:#333333"/><path d="m119.67252 215.453h-12.328v-29.058c0-3.404 2.76-6.164 6.164-6.164s6.164 2.76 6.164 6.164z" style="fill:#333333"/><rect x="196.06853" y="153.528" width="61.970001" height="286.48999" style="fill:#999999"/><polygon transform="translate(-.41247847)" points="173.794 153.532 227.465 88.285 281.135 153.532" style="fill:#9a87c9"/><path d="m219.98752 203.677h-14v-33c0-3.866 3.134-7 7-7s7 3.134 7 7z" style="fill:#333333"/><path d="m219.98752 263.677h-14v-33c0-3.866 3.134-7 7-7s7 3.134 7 7z" style="fill:#333333"/><path d="m248.11652 203.677h-14v-33c0-3.866 3.134-7 7-7s7 3.134 7 7z" style="fill:#333333"/><path d="m248.11652 263.677h-14v-33c0-3.866 3.134-7 7-7s7 3.134 7 7z" style="fill:#333333"/><rect x="94.358528" y="158.368" width="38.299999" height="6" style="fill:#666666"/><rect x="268.14853" y="85.398003" width="38.299999" height="6" style="fill:#808080"/><rect x="196.06853" y="153.528" width="61.970001" height="6" style="fill:#808080"/><polygon transform="translate(-.41247847)" points="113.921 72.975 103.784 158.368 80.751 158.373" style="fill:#8172af"/><polygon transform="translate(-.41247847)" points="287.708 0 277.571 85.393 254.537 85.398" style="fill:#8172af"/><polygon transform="translate(-.41247847)" points="227.465 88.285 205.907 153.528 173.794 153.532" style="fill:#8172af"/><rect x="224.55252" y="50.198002" width="5" height="62.530998" style="fill:#9a87c9"/><circle cx="227.05252" cy="50.198002" r="8.1490002" style="fill:#f9e575"/><rect x="74.763992" y="320.03287" width="309.56976" height="33.622677" style="fill:#b3b3b3;stroke-width:.465443"/><rect x="86.102554" y="353.65555" width="286.89261" height="5.6692915" style="fill:#999999;stroke-width:1.32733"/><rect x="86.102554" y="359.32483" width="286.89261" height="199.79277" style="fill:#b3b3b3;stroke-width:1.09224"/><g transform="translate(358.68788,10.874863)"><g transform="translate(-319.05489,77)" style="fill:#b3b3b3">
		
		
		
		
		
		
		
		
		
		
		
	<rect x="35.130997" y="215.15012" width="17.007874" height="17.007874" style="fill:#b3b3b3;stroke-width:.898794"/></g><g transform="translate(-270.29458,77)" style="fill:#b3b3b3">
		
		
		
		
		
		
		
		
		
		
		
	<rect x="35.130997" y="215.15012" width="17.007874" height="17.007874" style="fill:#b3b3b3;stroke-width:.898794"/></g><g transform="translate(-221.53426,77)" style="fill:#b3b3b3">
		
		
		
		
		
		
		
		
		
		
		
	<rect x="35.130997" y="215.15012" width="17.007874" height="17.007874" style="fill:#b3b3b3;stroke-width:.898794"/></g><g transform="translate(-172.77394,77)" style="fill:#b3b3b3">
		
		
		
		
		
		
		
		
		
		
		
	<rect x="35.130997" y="215.15012" width="17.007874" height="17.007874" style="fill:#b3b3b3;stroke-width:.898794"/></g><g transform="translate(-75.253311,77)" style="fill:#b3b3b3">
		
		
		
		
		
		
		
		
		
		
		
	<rect x="35.130997" y="215.15012" width="17.007874" height="17.007874" style="fill:#b3b3b3;stroke-width:.898794"/></g><g transform="translate(-26.492996,77)" style="fill:#b3b3b3">
		
		
		
		
		
		
		
		
		
		
		
	<rect x="35.130997" y="215.15012" width="17.007874" height="17.007874" style="fill:#b3b3b3;stroke-width:.898794"/></g><g transform="translate(-124.01363,77)" style="fill:#b3b3b3">
		
		
		
		
		
		
		
		
		
		
		
	<rect x="35.130997" y="215.15012" width="17.007874" height="17.007874" style="fill:#b3b3b3;stroke-width:.898794"/></g></g><g transform="translate(2.4326557 .46859297)" style="fill:#333333"><path d="m233.28021 410.638h-12.328v-12.788c0-3.404 2.76-6.164 6.164-6.164s6.164 2.76 6.164 6.164z" style="fill:#333333"/><path d="m133.071 410.638h-12.328v-12.788c0-3.404 2.76-6.164 6.164-6.164s6.164 2.76 6.164 6.164z" style="fill:#333333"/><path d="m333.4894 408.51668h-12.328v-12.788c0-3.404 2.76-6.164 6.164-6.164s6.164 2.76 6.164 6.164z" style="fill:#333333"/></g><path d="m179.85142 469.01218h-12.328v-12.788c0-3.404 2.76-6.164 6.164-6.164s6.164 2.76 6.164 6.164z" style="fill:#333333"/><path d="m291.57429 466.89086h-12.328v-12.788c0-3.404 2.76-6.164 6.164-6.164s6.164 2.76 6.164 6.164z" style="fill:#333333"/><g transform="translate(-5.3955914)"><path d="m252.77417 559.08412h-35.65944v-33.62402c0-8.95031 7.98342-16.20725 17.8297-16.20725 9.84627 0 17.82974 7.25695 17.82974 16.20725z" style="fill:#1a1a1a;stroke-width:2.75779"/><path d="m250.82277 559.07459h-31.75664v-32.94153c0-8.76861 7.10974-15.87831 15.87831-15.87831 8.76865 0 15.87833 7.1097 15.87833 15.87831z" style="fill:#333333;stroke-width:2.57596"/></g></g>















</svg>
