<svg xmlns="http://www.w3.org/2000/svg" viewBox="0 0 24 24" style="enable-background:new 0 0 24 24" xml:space="preserve">
  <style>
    .st4{fill:#fff}
  </style>
  <path style="fill:none" d="M0 0h24v24H0z" id="bounding_box"/>
  <g id="design">
    <path class="st4" d="M15.25 20H2.75c-.41 0-.75-.34-.75-.75v-8.5C2 7.03 5.03 4 8.75 4h6.5C18.97 4 22 7.03 22 10.75v2.5c0 3.72-3.03 6.75-6.75 6.75zM3.5 18.5h11.75c2.89 0 5.25-2.36 5.25-5.25v-2.5c0-2.9-2.36-5.25-5.25-5.25h-6.5c-2.89 0-5.25 2.35-5.25 5.25v7.75z"/>
    <path class="st4" d="M8 13c-.26 0-.52-.11-.71-.29-.18-.19-.29-.45-.29-.71 0-.27.11-.52.29-.71.37-.37 1.05-.37 1.42 0l.12.15c.04.06.07.12.09.18.03.06.05.12.06.18.01.07.02.14.02.2s-.01.13-.02.2c-.01.06-.03.12-.06.18-.02.06-.05.12-.09.17-.04.06-.08.11-.12.16-.19.18-.45.29-.71.29zm4 0c-.13 0-.26-.03-.38-.08-.13-.05-.23-.12-.33-.21-.18-.19-.29-.45-.29-.71 0-.13.03-.26.08-.38.05-.13.12-.23.21-.33.1-.09.2-.16.33-.21.18-.08.38-.1.57-.06.07.01.13.03.19.06.06.02.12.05.17.09.06.03.11.08.16.12.09.1.16.2.21.33.05.12.08.25.08.38 0 .26-.11.52-.29.71-.05.04-.1.09-.16.12-.05.04-.11.07-.17.09-.06.03-.12.05-.19.06-.06.01-.13.02-.19.02zm4 0c-.06 0-.13-.01-.19-.02a.603.603 0 0 1-.19-.06.757.757 0 0 1-.18-.09l-.15-.12c-.18-.19-.29-.44-.29-.71 0-.13.03-.26.08-.38s.12-.23.21-.33l.15-.12c.06-.04.12-.07.18-.09.06-.03.12-.05.19-.06.32-.06.66.04.9.27.18.19.29.45.29.71 0 .06-.01.13-.02.2-.01.06-.03.12-.06.18-.02.06-.05.12-.09.18l-.12.15c-.19.18-.45.29-.71.29z"/>
  </g>
</svg>
