<svg xmlns="http://www.w3.org/2000/svg" viewBox="0 0 24 24" style="enable-background:new 0 0 24 24" xml:space="preserve">
  <style>
    .st1{fill:#fff}
  </style>
  <path style="fill:none" d="M0 0h24v24H0z" id="bounding_area"/>
  <g id="design">
    <path class="st1" d="m21.44 12.23-.01-.01c-.02-.06-.05-.13-.07-.19-.01-.01-.01-.02-.02-.03-1.41-3.79-5.06-6.5-9.34-6.5h-.01a9.991 9.991 0 0 0-9.39 6.61c-.02.04-.03.08-.04.12A9.56 9.56 0 0 0 2 15.5v2.75c0 .41.33.75.75.75h18.5c.41 0 .75-.34.75-.75V15.5c0-1.14-.2-2.24-.56-3.27zm-.94 5.27h-17v-2c0-.75.1-1.48.28-2.17l1.03.27c.06.02.13.03.19.03.33 0 .63-.22.72-.56.11-.4-.13-.81-.53-.91l-.9-.24c1.26-2.69 3.87-4.62 6.96-4.89v1.29c.01.41.34.74.75.74h.01c.41 0 .75-.34.74-.75V7.03c3.08.27 5.7 2.2 6.96 4.89l-.9.24c-.4.1-.64.51-.53.91.09.34.39.56.72.56.06 0 .13-.01.19-.03l1.03-.27c.18.69.28 1.42.28 2.17v2z"/>
    <path class="st1" d="M13.25 14.75c0 .69-.55 1.25-1.25 1.25-.53 0-.98-.33-1.16-.79l-2.34-.62a.75.75 0 1 1 .39-1.45l2.34.63a1.244 1.244 0 0 1 2.02.98z"/>
  </g>
</svg>
